<svg width="576" height="384" viewBox="0 0 432 288" xmlns="http://www.w3.org/2000/svg" xmlns:xlink="http://www.w3.org/1999/xlink" overflow="hidden"><defs></defs><defs><clipPath id="cpMC4wMHw0MzIuMDB8MC4wMHwyODguMDA="><rect x="0" y="0" width="432" height="288" stroke="#000000" stroke-linecap="round" stroke-linejoin="round" stroke-miterlimit="10" fill="none"/></clipPath></defs><defs><clipPath id="cpMzUuNTl8MTYyLjI0fDIyLjQwfDEwOC42NQ=="><rect x="35.59" y="22.4" width="126.66" height="86.26" stroke="#000000" stroke-linecap="round" stroke-linejoin="round" stroke-miterlimit="10" fill="none"/></clipPath></defs><defs><clipPath id="cpMzUuNTl8MTYyLjI0fDEzMS4wNXwyMTcuMzE="><rect x="35.59" y="131.05" width="126.66" height="86.26" stroke="#000000" stroke-linecap="round" stroke-linejoin="round" stroke-miterlimit="10" fill="none"/></clipPath></defs><defs><clipPath id="cpMTY3LjcyfDI5NC4zOHwyMi40MHwxMDguNjU="><rect x="167.72" y="22.4" width="126.66" height="86.26" stroke="#000000" stroke-linecap="round" stroke-linejoin="round" stroke-miterlimit="10" fill="none"/></clipPath></defs><defs><clipPath id="cpMTY3LjcyfDI5NC4zOHwxMzEuMDV8MjE3LjMx"><rect x="167.72" y="131.05" width="126.66" height="86.26" stroke="#000000" stroke-linecap="round" stroke-linejoin="round" stroke-miterlimit="10" fill="none"/></clipPath></defs><defs><clipPath id="cpMjk5Ljg2fDQyNi41MnwyMi40MHwxMDguNjU="><rect x="299.86" y="22.4" width="126.66" height="86.26" stroke="#000000" stroke-linecap="round" stroke-linejoin="round" stroke-miterlimit="10" fill="none"/></clipPath></defs><defs><clipPath id="cpMjk5Ljg2fDQyNi41MnwxMzEuMDV8MjE3LjMx"><rect x="299.86" y="131.05" width="126.66" height="86.26" stroke="#000000" stroke-linecap="round" stroke-linejoin="round" stroke-miterlimit="10" fill="none"/></clipPath></defs><defs><clipPath id="cpMzUuNTl8MTYyLjI0fDExNC4xM3wxMzEuMDU="><rect x="35.59" y="114.13" width="126.66" height="16.92" stroke="#000000" stroke-linecap="round" stroke-linejoin="round" stroke-miterlimit="10" fill="none"/></clipPath></defs><defs><clipPath id="cpMTY3LjcyfDI5NC4zOHwxMTQuMTN8MTMxLjA1"><rect x="167.72" y="114.13" width="126.66" height="16.92" stroke="#000000" stroke-linecap="round" stroke-linejoin="round" stroke-miterlimit="10" fill="none"/></clipPath></defs><defs><clipPath id="cpMjk5Ljg2fDQyNi41MnwxMTQuMTN8MTMxLjA1"><rect x="299.86" y="114.13" width="126.66" height="16.92" stroke="#000000" stroke-linecap="round" stroke-linejoin="round" stroke-miterlimit="10" fill="none"/></clipPath></defs><defs><clipPath id="cpMzUuNTl8MTYyLjI0fDUuNDh8MjIuNDA="><rect x="35.59" y="5.48" width="126.66" height="16.92" stroke="#000000" stroke-linecap="round" stroke-linejoin="round" stroke-miterlimit="10" fill="none"/></clipPath></defs><defs><clipPath id="cpMTY3LjcyfDI5NC4zOHw1LjQ4fDIyLjQw"><rect x="167.72" y="5.48" width="126.66" height="16.92" stroke="#000000" stroke-linecap="round" stroke-linejoin="round" stroke-miterlimit="10" fill="none"/></clipPath></defs><defs><clipPath id="cpMjk5Ljg2fDQyNi41Mnw1LjQ4fDIyLjQw"><rect x="299.86" y="5.48" width="126.66" height="16.92" stroke="#000000" stroke-linecap="round" stroke-linejoin="round" stroke-miterlimit="10" fill="none"/></clipPath></defs><rect x="0" y="0" width="100%" height="100%" stroke-linecap="round" stroke-linejoin="round" stroke-miterlimit="10" fill="#FFFFFF"/><g clip-path="url(#cpMC4wMHw0MzIuMDB8MC4wMHwyODguMDA=)"><rect x="3.2e-14" y="0" width="432" height="288" stroke="#FFFFFF" stroke-width="1.07" stroke-linecap="round" stroke-linejoin="round" stroke-miterlimit="10" fill="#FFFFFF"/></g><g clip-path="url(#cpMzUuNTl8MTYyLjI0fDIyLjQwfDEwOC42NQ==)"><rect x="35.59" y="22.4" width="126.66" height="86.26" stroke-width="1.07" stroke-linecap="round" stroke-linejoin="round" stroke-miterlimit="10" fill="#FFFFFF"/><circle cx="41.81" cy="26.32" r="1.95" stroke-width="0.71" stroke-linecap="round" stroke-linejoin="round" stroke-miterlimit="10" fill="#F8766D"/><path d="M52.2 43 54.83 47.56 49.56 47.56Z" stroke-width="0.71" stroke-linecap="round" stroke-linejoin="round" stroke-miterlimit="10" fill="#00BFC4"/><path d="M62.58 58.95 65.21 63.51 59.95 63.51Z" stroke-width="0.71" stroke-linecap="round" stroke-linejoin="round" stroke-miterlimit="10" fill="#00BFC4"/><path d="M72.96 76.36 75.59 80.92 70.33 80.92Z" stroke-width="0.71" stroke-linecap="round" stroke-linejoin="round" stroke-miterlimit="10" fill="#00BFC4"/><path d="M83.34 82.86 85.98 87.42 80.71 87.42Z" stroke-width="0.71" stroke-linecap="round" stroke-linejoin="round" stroke-miterlimit="10" fill="#00BFC4"/><path d="M93.72 92.51 96.36 97.07 91.09 97.07Z" stroke-width="0.71" stroke-linecap="round" stroke-linejoin="round" stroke-miterlimit="10" fill="#00BFC4"/><path d="M104.11 71.74 106.74 76.3 101.47 76.3Z" stroke-width="0.71" stroke-linecap="round" stroke-linejoin="round" stroke-miterlimit="10" fill="#00BFC4"/><path d="M52.2 46.04 62.58 61.99 72.96 79.4 83.34 85.9 93.72 95.55 104.11 74.78" stroke="#00BFC4" stroke-width="1.07" stroke-linejoin="round" stroke-miterlimit="10" fill="none"/><line x1="47.01" y1="108.65" x2="47.01" y2="22.4" stroke="#A9A9A9" stroke-width="1.07" stroke-linejoin="round" stroke-miterlimit="10" stroke-dasharray="1.42 4.27 5.69 4.27" fill="none"/><rect x="35.59" y="22.4" width="126.66" height="86.26" stroke="#333333" stroke-width="1.07" stroke-linecap="round" stroke-linejoin="round" stroke-miterlimit="10" fill="none"/></g><g clip-path="url(#cpMC4wMHw0MzIuMDB8MC4wMHwyODguMDA=)"></g><g clip-path="url(#cpMzUuNTl8MTYyLjI0fDEzMS4wNXwyMTcuMzE=)"><rect x="35.59" y="131.05" width="126.66" height="86.26" stroke-width="1.07" stroke-linecap="round" stroke-linejoin="round" stroke-miterlimit="10" fill="#FFFFFF"/><circle cx="41.81" cy="141.26" r="1.95" stroke-width="0.71" stroke-linecap="round" stroke-linejoin="round" stroke-miterlimit="10" fill="#F8766D"/><circle cx="52.2" cy="148.4" r="1.95" stroke-width="0.71" stroke-linecap="round" stroke-linejoin="round" stroke-miterlimit="10" fill="#F8766D"/><circle cx="62.58" cy="151.55" r="1.95" stroke-width="0.71" stroke-linecap="round" stroke-linejoin="round" stroke-miterlimit="10" fill="#F8766D"/><circle cx="72.96" cy="146.72" r="1.95" stroke-width="0.71" stroke-linecap="round" stroke-linejoin="round" stroke-miterlimit="10" fill="#F8766D"/><path d="M83.34 149.55 85.98 154.11 80.71 154.11Z" stroke-width="0.71" stroke-linecap="round" stroke-linejoin="round" stroke-miterlimit="10" fill="#00BFC4"/><path d="M93.72 168.23 96.36 172.79 91.09 172.79Z" stroke-width="0.71" stroke-linecap="round" stroke-linejoin="round" stroke-miterlimit="10" fill="#00BFC4"/><path d="M104.11 186.06 106.74 190.62 101.47 190.62Z" stroke-width="0.71" stroke-linecap="round" stroke-linejoin="round" stroke-miterlimit="10" fill="#00BFC4"/><path d="M114.49 196.13 117.12 200.69 111.86 200.69Z" stroke-width="0.71" stroke-linecap="round" stroke-linejoin="round" stroke-miterlimit="10" fill="#00BFC4"/><path d="M124.87 200.33 127.5 204.89 122.24 204.89Z" stroke-width="0.71" stroke-linecap="round" stroke-linejoin="round" stroke-miterlimit="10" fill="#00BFC4"/><path d="M135.25 183.33 137.88 187.89 132.62 187.89Z" stroke-width="0.71" stroke-linecap="round" stroke-linejoin="round" stroke-miterlimit="10" fill="#00BFC4"/><path d="M41.81 141.26 52.2 148.4 62.58 151.55 72.96 146.72" stroke="#F8766D" stroke-width="1.07" stroke-linejoin="round" stroke-miterlimit="10" fill="none"/><path d="M83.34 152.59 93.72 171.27 104.11 189.1 114.49 199.17 124.87 203.37 135.25 186.37" stroke="#00BFC4" stroke-width="1.07" stroke-linejoin="round" stroke-miterlimit="10" fill="none"/><line x1="78.15" y1="217.31" x2="78.15" y2="131.05" stroke="#A9A9A9" stroke-width="1.07" stroke-linejoin="round" stroke-miterlimit="10" stroke-dasharray="1.42 4.27 5.69 4.27" fill="none"/><rect x="35.59" y="131.05" width="126.66" height="86.26" stroke="#333333" stroke-width="1.07" stroke-linecap="round" stroke-linejoin="round" stroke-miterlimit="10" fill="none"/></g><g clip-path="url(#cpMC4wMHw0MzIuMDB8MC4wMHwyODguMDA=)"></g><g clip-path="url(#cpMTY3LjcyfDI5NC4zOHwyMi40MHwxMDguNjU=)"><rect x="167.72" y="22.4" width="126.66" height="86.26" stroke-width="1.07" stroke-linecap="round" stroke-linejoin="round" stroke-miterlimit="10" fill="#FFFFFF"/><circle cx="173.95" cy="28.42" r="1.95" stroke-width="0.71" stroke-linecap="round" stroke-linejoin="round" stroke-miterlimit="10" fill="#F8766D"/><circle cx="184.33" cy="28.42" r="1.95" stroke-width="0.71" stroke-linecap="round" stroke-linejoin="round" stroke-miterlimit="10" fill="#F8766D"/><path d="M194.72 39.01 197.35 43.57 192.08 43.57Z" stroke-width="0.71" stroke-linecap="round" stroke-linejoin="round" stroke-miterlimit="10" fill="#00BFC4"/><path d="M205.1 58.11 207.73 62.67 202.47 62.67Z" stroke-width="0.71" stroke-linecap="round" stroke-linejoin="round" stroke-miterlimit="10" fill="#00BFC4"/><path d="M215.48 74.89 218.11 79.45 212.85 79.45Z" stroke-width="0.71" stroke-linecap="round" stroke-linejoin="round" stroke-miterlimit="10" fill="#00BFC4"/><path d="M225.86 82.65 228.49 87.21 223.23 87.21Z" stroke-width="0.71" stroke-linecap="round" stroke-linejoin="round" stroke-miterlimit="10" fill="#00BFC4"/><path d="M236.24 88.11 238.88 92.67 233.61 92.67Z" stroke-width="0.71" stroke-linecap="round" stroke-linejoin="round" stroke-miterlimit="10" fill="#00BFC4"/><path d="M246.63 73 249.26 77.56 243.99 77.56Z" stroke-width="0.71" stroke-linecap="round" stroke-linejoin="round" stroke-miterlimit="10" fill="#00BFC4"/><path d="M173.95 28.42 184.33 28.42" stroke="#F8766D" stroke-width="1.07" stroke-linejoin="round" stroke-miterlimit="10" fill="none"/><path d="M194.72 42.05 205.1 61.15 215.48 77.93 225.86 85.69 236.24 91.15 246.63 76.04" stroke="#00BFC4" stroke-width="1.07" stroke-linejoin="round" stroke-miterlimit="10" fill="none"/><line x1="189.53" y1="108.65" x2="189.53" y2="22.4" stroke="#A9A9A9" stroke-width="1.07" stroke-linejoin="round" stroke-miterlimit="10" stroke-dasharray="1.42 4.27 5.69 4.27" fill="none"/><rect x="167.72" y="22.4" width="126.66" height="86.26" stroke="#333333" stroke-width="1.07" stroke-linecap="round" stroke-linejoin="round" stroke-miterlimit="10" fill="none"/></g><g clip-path="url(#cpMC4wMHw0MzIuMDB8MC4wMHwyODguMDA=)"></g><g clip-path="url(#cpMTY3LjcyfDI5NC4zOHwxMzEuMDV8MjE3LjMx)"><rect x="167.72" y="131.05" width="126.66" height="86.26" stroke-width="1.07" stroke-linecap="round" stroke-linejoin="round" stroke-miterlimit="10" fill="#FFFFFF"/><circle cx="173.95" cy="149.24" r="1.95" stroke-width="0.71" stroke-linecap="round" stroke-linejoin="round" stroke-miterlimit="10" fill="#F8766D"/><circle cx="184.33" cy="164.13" r="1.95" stroke-width="0.71" stroke-linecap="round" stroke-linejoin="round" stroke-miterlimit="10" fill="#F8766D"/><circle cx="194.72" cy="174.83" r="1.95" stroke-width="0.71" stroke-linecap="round" stroke-linejoin="round" stroke-miterlimit="10" fill="#F8766D"/><circle cx="205.1" cy="179.87" r="1.95" stroke-width="0.71" stroke-linecap="round" stroke-linejoin="round" stroke-miterlimit="10" fill="#F8766D"/><circle cx="215.48" cy="166.23" r="1.95" stroke-width="0.71" stroke-linecap="round" stroke-linejoin="round" stroke-miterlimit="10" fill="#F8766D"/><path d="M225.86 150.6 228.49 155.16 223.23 155.16Z" stroke-width="0.71" stroke-linecap="round" stroke-linejoin="round" stroke-miterlimit="10" fill="#00BFC4"/><path d="M236.24 173.26 238.88 177.82 233.61 177.82Z" stroke-width="0.71" stroke-linecap="round" stroke-linejoin="round" stroke-miterlimit="10" fill="#00BFC4"/><path d="M246.63 184.59 249.26 189.15 243.99 189.15Z" stroke-width="0.71" stroke-linecap="round" stroke-linejoin="round" stroke-miterlimit="10" fill="#00BFC4"/><path d="M257.01 198.86 259.64 203.42 254.38 203.42Z" stroke-width="0.71" stroke-linecap="round" stroke-linejoin="round" stroke-miterlimit="10" fill="#00BFC4"/><path d="M267.39 202.64 270.02 207.2 264.76 207.2Z" stroke-width="0.71" stroke-linecap="round" stroke-linejoin="round" stroke-miterlimit="10" fill="#00BFC4"/><path d="M277.77 189.42 280.4 193.98 275.14 193.98Z" stroke-width="0.71" stroke-linecap="round" stroke-linejoin="round" stroke-miterlimit="10" fill="#00BFC4"/><path d="M173.95 149.24 184.33 164.13 194.72 174.83 205.1 179.87 215.48 166.23" stroke="#F8766D" stroke-width="1.07" stroke-linejoin="round" stroke-miterlimit="10" fill="none"/><path d="M225.86 153.64 236.24 176.3 246.63 187.63 257.01 201.9 267.39 205.68 277.77 192.46" stroke="#00BFC4" stroke-width="1.07" stroke-linejoin="round" stroke-miterlimit="10" fill="none"/><line x1="220.67" y1="217.31" x2="220.67" y2="131.05" stroke="#A9A9A9" stroke-width="1.07" stroke-linejoin="round" stroke-miterlimit="10" stroke-dasharray="1.42 4.27 5.69 4.27" fill="none"/><rect x="167.72" y="131.05" width="126.66" height="86.26" stroke="#333333" stroke-width="1.07" stroke-linecap="round" stroke-linejoin="round" stroke-miterlimit="10" fill="none"/></g><g clip-path="url(#cpMC4wMHw0MzIuMDB8MC4wMHwyODguMDA=)"></g><g clip-path="url(#cpMjk5Ljg2fDQyNi41MnwyMi40MHwxMDguNjU=)"><rect x="299.86" y="22.4" width="126.66" height="86.26" stroke-width="1.07" stroke-linecap="round" stroke-linejoin="round" stroke-miterlimit="10" fill="#FFFFFF"/><circle cx="306.09" cy="30.72" r="1.95" stroke-width="0.71" stroke-linecap="round" stroke-linejoin="round" stroke-miterlimit="10" fill="#F8766D"/><circle cx="316.47" cy="32.82" r="1.95" stroke-width="0.71" stroke-linecap="round" stroke-linejoin="round" stroke-miterlimit="10" fill="#F8766D"/><circle cx="326.85" cy="31.98" r="1.95" stroke-width="0.71" stroke-linecap="round" stroke-linejoin="round" stroke-miterlimit="10" fill="#F8766D"/><path d="M337.24 41.11 339.87 45.67 334.6 45.67Z" stroke-width="0.71" stroke-linecap="round" stroke-linejoin="round" stroke-miterlimit="10" fill="#00BFC4"/><path d="M347.62 61.67 350.25 66.23 344.99 66.23Z" stroke-width="0.71" stroke-linecap="round" stroke-linejoin="round" stroke-miterlimit="10" fill="#00BFC4"/><path d="M358 71.95 360.63 76.51 355.37 76.51Z" stroke-width="0.71" stroke-linecap="round" stroke-linejoin="round" stroke-miterlimit="10" fill="#00BFC4"/><path d="M368.38 83.28 371.01 87.84 365.75 87.84Z" stroke-width="0.71" stroke-linecap="round" stroke-linejoin="round" stroke-miterlimit="10" fill="#00BFC4"/><path d="M378.76 94.82 381.4 99.38 376.13 99.38Z" stroke-width="0.71" stroke-linecap="round" stroke-linejoin="round" stroke-miterlimit="10" fill="#00BFC4"/><path d="M389.15 76.36 391.78 80.92 386.51 80.92Z" stroke-width="0.71" stroke-linecap="round" stroke-linejoin="round" stroke-miterlimit="10" fill="#00BFC4"/><path d="M306.09 30.72 316.47 32.82 326.85 31.98" stroke="#F8766D" stroke-width="1.07" stroke-linejoin="round" stroke-miterlimit="10" fill="none"/><path d="M337.24 44.15 347.62 64.71 358 74.99 368.38 86.32 378.76 97.86 389.15 79.4" stroke="#00BFC4" stroke-width="1.07" stroke-linejoin="round" stroke-miterlimit="10" fill="none"/><line x1="332.05" y1="108.65" x2="332.05" y2="22.4" stroke="#A9A9A9" stroke-width="1.07" stroke-linejoin="round" stroke-miterlimit="10" stroke-dasharray="1.42 4.27 5.69 4.27" fill="none"/><rect x="299.86" y="22.4" width="126.66" height="86.26" stroke="#333333" stroke-width="1.07" stroke-linecap="round" stroke-linejoin="round" stroke-miterlimit="10" fill="none"/></g><g clip-path="url(#cpMC4wMHw0MzIuMDB8MC4wMHwyODguMDA=)"></g><g clip-path="url(#cpMjk5Ljg2fDQyNi41MnwxMzEuMDV8MjE3LjMx)"><rect x="299.86" y="131.05" width="126.66" height="86.26" stroke-width="1.07" stroke-linecap="round" stroke-linejoin="round" stroke-miterlimit="10" fill="#FFFFFF"/><circle cx="306.09" cy="151.62" r="1.95" stroke-width="0.71" stroke-linecap="round" stroke-linejoin="round" stroke-miterlimit="10" fill="#F8766D"/><circle cx="316.47" cy="176.09" r="1.95" stroke-width="0.71" stroke-linecap="round" stroke-linejoin="round" stroke-miterlimit="10" fill="#F8766D"/><circle cx="326.85" cy="199.87" r="1.95" stroke-width="0.71" stroke-linecap="round" stroke-linejoin="round" stroke-miterlimit="10" fill="#F8766D"/><circle cx="337.24" cy="206.03" r="1.95" stroke-width="0.71" stroke-linecap="round" stroke-linejoin="round" stroke-miterlimit="10" fill="#F8766D"/><circle cx="347.62" cy="210.92" r="1.95" stroke-width="0.71" stroke-linecap="round" stroke-linejoin="round" stroke-miterlimit="10" fill="#F8766D"/><circle cx="358" cy="193.3" r="1.95" stroke-width="0.71" stroke-linecap="round" stroke-linejoin="round" stroke-miterlimit="10" fill="#F8766D"/><path d="M368.38 150.39 371.01 154.95 365.75 154.95Z" stroke-width="0.71" stroke-linecap="round" stroke-linejoin="round" stroke-miterlimit="10" fill="#00BFC4"/><path d="M378.76 171.58 381.4 176.14 376.13 176.14Z" stroke-width="0.71" stroke-linecap="round" stroke-linejoin="round" stroke-miterlimit="10" fill="#00BFC4"/><path d="M389.15 190.26 391.78 194.82 386.51 194.82Z" stroke-width="0.71" stroke-linecap="round" stroke-linejoin="round" stroke-miterlimit="10" fill="#00BFC4"/><path d="M399.53 194.03 402.16 198.59 396.9 198.59Z" stroke-width="0.71" stroke-linecap="round" stroke-linejoin="round" stroke-miterlimit="10" fill="#00BFC4"/><path d="M409.91 207.46 412.54 212.02 407.28 212.02Z" stroke-width="0.71" stroke-linecap="round" stroke-linejoin="round" stroke-miterlimit="10" fill="#00BFC4"/><path d="M420.29 191.1 422.92 195.66 417.66 195.66Z" stroke-width="0.71" stroke-linecap="round" stroke-linejoin="round" stroke-miterlimit="10" fill="#00BFC4"/><path d="M306.09 151.62 316.47 176.09 326.85 199.87 337.24 206.03 347.62 210.92 358 193.3" stroke="#F8766D" stroke-width="1.07" stroke-linejoin="round" stroke-miterlimit="10" fill="none"/><path d="M368.38 153.43 378.76 174.62 389.15 193.3 399.53 197.07 409.91 210.5 420.29 194.14" stroke="#00BFC4" stroke-width="1.07" stroke-linejoin="round" stroke-miterlimit="10" fill="none"/><line x1="363.19" y1="217.31" x2="363.19" y2="131.05" stroke="#A9A9A9" stroke-width="1.07" stroke-linejoin="round" stroke-miterlimit="10" stroke-dasharray="1.42 4.27 5.69 4.27" fill="none"/><rect x="299.86" y="131.05" width="126.66" height="86.26" stroke="#333333" stroke-width="1.07" stroke-linecap="round" stroke-linejoin="round" stroke-miterlimit="10" fill="none"/></g><g clip-path="url(#cpMC4wMHw0MzIuMDB8MC4wMHwyODguMDA=)"></g><g clip-path="url(#cpMzUuNTl8MTYyLjI0fDExNC4xM3wxMzEuMDU=)"><rect x="35.59" y="114.13" width="126.66" height="16.92" stroke="#333333" stroke-width="1.07" stroke-linecap="round" stroke-linejoin="round" stroke-miterlimit="10" fill="#D9D9D9"/><text fill="#1A1A1A" font-family="Arial" font-size="8.8" text-anchor="middle" xml:space="preserve" x="98.92" y="125.74">4</text></g><g clip-path="url(#cpMC4wMHw0MzIuMDB8MC4wMHwyODguMDA=)"></g><g clip-path="url(#cpMTY3LjcyfDI5NC4zOHwxMTQuMTN8MTMxLjA1)"><rect x="167.72" y="114.13" width="126.66" height="16.92" stroke="#333333" stroke-width="1.07" stroke-linecap="round" stroke-linejoin="round" stroke-miterlimit="10" fill="#D9D9D9"/><text fill="#1A1A1A" font-family="Arial" font-size="8.8" text-anchor="middle" xml:space="preserve" x="231.05" y="125.74">5</text></g><g clip-path="url(#cpMC4wMHw0MzIuMDB8MC4wMHwyODguMDA=)"></g><g clip-path="url(#cpMjk5Ljg2fDQyNi41MnwxMTQuMTN8MTMxLjA1)"><rect x="299.86" y="114.13" width="126.66" height="16.92" stroke="#333333" stroke-width="1.07" stroke-linecap="round" stroke-linejoin="round" stroke-miterlimit="10" fill="#D9D9D9"/><text fill="#1A1A1A" font-family="Arial" font-size="8.8" text-anchor="middle" xml:space="preserve" x="363.19" y="125.74">6</text></g><g clip-path="url(#cpMC4wMHw0MzIuMDB8MC4wMHwyODguMDA=)"></g><g clip-path="url(#cpMzUuNTl8MTYyLjI0fDUuNDh8MjIuNDA=)"><rect x="35.59" y="5.48" width="126.66" height="16.92" stroke="#333333" stroke-width="1.07" stroke-linecap="round" stroke-linejoin="round" stroke-miterlimit="10" fill="#D9D9D9"/><text fill="#1A1A1A" font-family="Arial" font-size="8.8" text-anchor="middle" xml:space="preserve" x="98.92" y="17.09">1</text></g><g clip-path="url(#cpMC4wMHw0MzIuMDB8MC4wMHwyODguMDA=)"></g><g clip-path="url(#cpMTY3LjcyfDI5NC4zOHw1LjQ4fDIyLjQw)"><rect x="167.72" y="5.48" width="126.66" height="16.92" stroke="#333333" stroke-width="1.07" stroke-linecap="round" stroke-linejoin="round" stroke-miterlimit="10" fill="#D9D9D9"/><text fill="#1A1A1A" font-family="Arial" font-size="8.8" text-anchor="middle" xml:space="preserve" x="231.05" y="17.09">2</text></g><g clip-path="url(#cpMC4wMHw0MzIuMDB8MC4wMHwyODguMDA=)"></g><g clip-path="url(#cpMjk5Ljg2fDQyNi41Mnw1LjQ4fDIyLjQw)"><rect x="299.86" y="5.48" width="126.66" height="16.92" stroke="#333333" stroke-width="1.07" stroke-linecap="round" stroke-linejoin="round" stroke-miterlimit="10" fill="#D9D9D9"/><text fill="#1A1A1A" font-family="Arial" font-size="8.8" text-anchor="middle" xml:space="preserve" x="363.19" y="17.09">3</text></g><g clip-path="url(#cpMC4wMHw0MzIuMDB8MC4wMHwyODguMDA=)"><path d="M41.81 220.05 41.81 217.31" stroke="#333333" stroke-width="1.07" stroke-linejoin="round" stroke-miterlimit="10" fill="none"/><path d="M52.2 220.05 52.2 217.31" stroke="#333333" stroke-width="1.07" stroke-linejoin="round" stroke-miterlimit="10" fill="none"/><path d="M62.58 220.05 62.58 217.31" stroke="#333333" stroke-width="1.07" stroke-linejoin="round" stroke-miterlimit="10" fill="none"/><path d="M72.96 220.05 72.96 217.31" stroke="#333333" stroke-width="1.07" stroke-linejoin="round" stroke-miterlimit="10" fill="none"/><path d="M83.34 220.05 83.34 217.31" stroke="#333333" stroke-width="1.07" stroke-linejoin="round" stroke-miterlimit="10" fill="none"/><path d="M93.72 220.05 93.72 217.31" stroke="#333333" stroke-width="1.07" stroke-linejoin="round" stroke-miterlimit="10" fill="none"/><path d="M104.11 220.05 104.11 217.31" stroke="#333333" stroke-width="1.07" stroke-linejoin="round" stroke-miterlimit="10" fill="none"/><path d="M114.49 220.05 114.49 217.31" stroke="#333333" stroke-width="1.07" stroke-linejoin="round" stroke-miterlimit="10" fill="none"/><path d="M124.87 220.05 124.87 217.31" stroke="#333333" stroke-width="1.07" stroke-linejoin="round" stroke-miterlimit="10" fill="none"/><path d="M135.25 220.05 135.25 217.31" stroke="#333333" stroke-width="1.07" stroke-linejoin="round" stroke-miterlimit="10" fill="none"/><path d="M145.63 220.05 145.63 217.31" stroke="#333333" stroke-width="1.07" stroke-linejoin="round" stroke-miterlimit="10" fill="none"/><path d="M156.02 220.05 156.02 217.31" stroke="#333333" stroke-width="1.07" stroke-linejoin="round" stroke-miterlimit="10" fill="none"/><text fill="#4D4D4D" font-family="Arial" font-size="8.8" text-anchor="middle" xml:space="preserve" x="41.81" y="228.54">1</text><text fill="#4D4D4D" font-family="Arial" font-size="8.8" text-anchor="middle" xml:space="preserve" x="52.2" y="228.54">2</text><text fill="#4D4D4D" font-family="Arial" font-size="8.8" text-anchor="middle" xml:space="preserve" x="62.58" y="228.54">3</text><text fill="#4D4D4D" font-family="Arial" font-size="8.8" text-anchor="middle" xml:space="preserve" x="72.96" y="228.54">4</text><text fill="#4D4D4D" font-family="Arial" font-size="8.8" text-anchor="middle" xml:space="preserve" x="83.34" y="228.54">5</text><text fill="#4D4D4D" font-family="Arial" font-size="8.8" text-anchor="middle" xml:space="preserve" x="93.72" y="228.54">6</text><text fill="#4D4D4D" font-family="Arial" font-size="8.8" text-anchor="middle" xml:space="preserve" x="104.11" y="228.54">7</text><text fill="#4D4D4D" font-family="Arial" font-size="8.8" text-anchor="middle" xml:space="preserve" x="114.49" y="228.54">8</text><text fill="#4D4D4D" font-family="Arial" font-size="8.8" text-anchor="middle" xml:space="preserve" x="124.87" y="228.54">9</text><text fill="#4D4D4D" font-family="Arial" font-size="8.8" text-anchor="middle" xml:space="preserve" x="135.25" y="228.54">10</text><text fill="#4D4D4D" font-family="Arial" font-size="8.8" text-anchor="middle" xml:space="preserve" x="145.63" y="228.54">11</text><text fill="#4D4D4D" font-family="Arial" font-size="8.8" text-anchor="middle" xml:space="preserve" x="156.02" y="228.54">12</text><path d="M173.95 220.05 173.95 217.31" stroke="#333333" stroke-width="1.07" stroke-linejoin="round" stroke-miterlimit="10" fill="none"/><path d="M184.33 220.05 184.33 217.31" stroke="#333333" stroke-width="1.07" stroke-linejoin="round" stroke-miterlimit="10" fill="none"/><path d="M194.72 220.05 194.72 217.31" stroke="#333333" stroke-width="1.07" stroke-linejoin="round" stroke-miterlimit="10" fill="none"/><path d="M205.1 220.05 205.1 217.31" stroke="#333333" stroke-width="1.07" stroke-linejoin="round" stroke-miterlimit="10" fill="none"/><path d="M215.48 220.05 215.48 217.31" stroke="#333333" stroke-width="1.07" stroke-linejoin="round" stroke-miterlimit="10" fill="none"/><path d="M225.86 220.05 225.86 217.31" stroke="#333333" stroke-width="1.07" stroke-linejoin="round" stroke-miterlimit="10" fill="none"/><path d="M236.24 220.05 236.24 217.31" stroke="#333333" stroke-width="1.07" stroke-linejoin="round" stroke-miterlimit="10" fill="none"/><path d="M246.63 220.05 246.63 217.31" stroke="#333333" stroke-width="1.07" stroke-linejoin="round" stroke-miterlimit="10" fill="none"/><path d="M257.01 220.05 257.01 217.31" stroke="#333333" stroke-width="1.07" stroke-linejoin="round" stroke-miterlimit="10" fill="none"/><path d="M267.39 220.05 267.39 217.31" stroke="#333333" stroke-width="1.07" stroke-linejoin="round" stroke-miterlimit="10" fill="none"/><path d="M277.77 220.05 277.77 217.31" stroke="#333333" stroke-width="1.07" stroke-linejoin="round" stroke-miterlimit="10" fill="none"/><path d="M288.15 220.05 288.15 217.31" stroke="#333333" stroke-width="1.07" stroke-linejoin="round" stroke-miterlimit="10" fill="none"/><text fill="#4D4D4D" font-family="Arial" font-size="8.8" text-anchor="middle" xml:space="preserve" x="173.95" y="228.54">1</text><text fill="#4D4D4D" font-family="Arial" font-size="8.8" text-anchor="middle" xml:space="preserve" x="184.33" y="228.54">2</text><text fill="#4D4D4D" font-family="Arial" font-size="8.8" text-anchor="middle" xml:space="preserve" x="194.72" y="228.54">3</text><text fill="#4D4D4D" font-family="Arial" font-size="8.8" text-anchor="middle" xml:space="preserve" x="205.1" y="228.54">4</text><text fill="#4D4D4D" font-family="Arial" font-size="8.8" text-anchor="middle" xml:space="preserve" x="215.48" y="228.54">5</text><text fill="#4D4D4D" font-family="Arial" font-size="8.8" text-anchor="middle" xml:space="preserve" x="225.86" y="228.54">6</text><text fill="#4D4D4D" font-family="Arial" font-size="8.8" text-anchor="middle" xml:space="preserve" x="236.24" y="228.54">7</text><text fill="#4D4D4D" font-family="Arial" font-size="8.8" text-anchor="middle" xml:space="preserve" x="246.63" y="228.54">8</text><text fill="#4D4D4D" font-family="Arial" font-size="8.8" text-anchor="middle" xml:space="preserve" x="257.01" y="228.54">9</text><text fill="#4D4D4D" font-family="Arial" font-size="8.8" text-anchor="middle" xml:space="preserve" x="267.39" y="228.54">10</text><text fill="#4D4D4D" font-family="Arial" font-size="8.8" text-anchor="middle" xml:space="preserve" x="277.77" y="228.54">11</text><text fill="#4D4D4D" font-family="Arial" font-size="8.8" text-anchor="middle" xml:space="preserve" x="288.15" y="228.54">12</text><path d="M306.09 220.05 306.09 217.31" stroke="#333333" stroke-width="1.07" stroke-linejoin="round" stroke-miterlimit="10" fill="none"/><path d="M316.47 220.05 316.47 217.31" stroke="#333333" stroke-width="1.07" stroke-linejoin="round" stroke-miterlimit="10" fill="none"/><path d="M326.85 220.05 326.85 217.31" stroke="#333333" stroke-width="1.07" stroke-linejoin="round" stroke-miterlimit="10" fill="none"/><path d="M337.24 220.05 337.24 217.31" stroke="#333333" stroke-width="1.07" stroke-linejoin="round" stroke-miterlimit="10" fill="none"/><path d="M347.62 220.05 347.62 217.31" stroke="#333333" stroke-width="1.07" stroke-linejoin="round" stroke-miterlimit="10" fill="none"/><path d="M358 220.05 358 217.31" stroke="#333333" stroke-width="1.07" stroke-linejoin="round" stroke-miterlimit="10" fill="none"/><path d="M368.38 220.05 368.38 217.31" stroke="#333333" stroke-width="1.07" stroke-linejoin="round" stroke-miterlimit="10" fill="none"/><path d="M378.76 220.05 378.76 217.31" stroke="#333333" stroke-width="1.07" stroke-linejoin="round" stroke-miterlimit="10" fill="none"/><path d="M389.15 220.05 389.15 217.31" stroke="#333333" stroke-width="1.07" stroke-linejoin="round" stroke-miterlimit="10" fill="none"/><path d="M399.53 220.05 399.53 217.31" stroke="#333333" stroke-width="1.07" stroke-linejoin="round" stroke-miterlimit="10" fill="none"/><path d="M409.91 220.05 409.91 217.31" stroke="#333333" stroke-width="1.07" stroke-linejoin="round" stroke-miterlimit="10" fill="none"/><path d="M420.29 220.05 420.29 217.31" stroke="#333333" stroke-width="1.07" stroke-linejoin="round" stroke-miterlimit="10" fill="none"/><text fill="#4D4D4D" font-family="Arial" font-size="8.8" text-anchor="middle" xml:space="preserve" x="306.09" y="228.54">1</text><text fill="#4D4D4D" font-family="Arial" font-size="8.8" text-anchor="middle" xml:space="preserve" x="316.47" y="228.54">2</text><text fill="#4D4D4D" font-family="Arial" font-size="8.8" text-anchor="middle" xml:space="preserve" x="326.85" y="228.54">3</text><text fill="#4D4D4D" font-family="Arial" font-size="8.8" text-anchor="middle" xml:space="preserve" x="337.24" y="228.54">4</text><text fill="#4D4D4D" font-family="Arial" font-size="8.8" text-anchor="middle" xml:space="preserve" x="347.62" y="228.54">5</text><text fill="#4D4D4D" font-family="Arial" font-size="8.8" text-anchor="middle" xml:space="preserve" x="358" y="228.54">6</text><text fill="#4D4D4D" font-family="Arial" font-size="8.8" text-anchor="middle" xml:space="preserve" x="368.38" y="228.54">7</text><text fill="#4D4D4D" font-family="Arial" font-size="8.8" text-anchor="middle" xml:space="preserve" x="378.76" y="228.54">8</text><text fill="#4D4D4D" font-family="Arial" font-size="8.8" text-anchor="middle" xml:space="preserve" x="389.15" y="228.54">9</text><text fill="#4D4D4D" font-family="Arial" font-size="8.8" text-anchor="middle" xml:space="preserve" x="399.53" y="228.54">10</text><text fill="#4D4D4D" font-family="Arial" font-size="8.8" text-anchor="middle" xml:space="preserve" x="409.91" y="228.54">11</text><text fill="#4D4D4D" font-family="Arial" font-size="8.8" text-anchor="middle" xml:space="preserve" x="420.29" y="228.54">12</text><text fill="#4D4D4D" font-family="Arial" font-size="8.8" text-anchor="end" xml:space="preserve" x="30.65" y="108.78">0.5</text><text fill="#4D4D4D" font-family="Arial" font-size="8.8" text-anchor="end" xml:space="preserve" x="30.65" y="92.91">0.6</text><text fill="#4D4D4D" font-family="Arial" font-size="8.8" text-anchor="end" xml:space="preserve" x="30.65" y="77.05">0.7</text><text fill="#4D4D4D" font-family="Arial" font-size="8.8" text-anchor="end" xml:space="preserve" x="30.65" y="61.19">0.8</text><text fill="#4D4D4D" font-family="Arial" font-size="8.8" text-anchor="end" xml:space="preserve" x="30.65" y="45.33">0.9</text><text fill="#4D4D4D" font-family="Arial" font-size="8.8" text-anchor="end" xml:space="preserve" x="30.65" y="29.47">1.0</text><path d="M32.85 105.63 35.59 105.63" stroke="#333333" stroke-width="1.07" stroke-linejoin="round" stroke-miterlimit="10" fill="none"/><path d="M32.85 89.76 35.59 89.76" stroke="#333333" stroke-width="1.07" stroke-linejoin="round" stroke-miterlimit="10" fill="none"/><path d="M32.85 73.9 35.59 73.9" stroke="#333333" stroke-width="1.07" stroke-linejoin="round" stroke-miterlimit="10" fill="none"/><path d="M32.85 58.04 35.59 58.04" stroke="#333333" stroke-width="1.07" stroke-linejoin="round" stroke-miterlimit="10" fill="none"/><path d="M32.85 42.18 35.59 42.18" stroke="#333333" stroke-width="1.07" stroke-linejoin="round" stroke-miterlimit="10" fill="none"/><path d="M32.85 26.32 35.59 26.32" stroke="#333333" stroke-width="1.07" stroke-linejoin="round" stroke-miterlimit="10" fill="none"/><text fill="#4D4D4D" font-family="Arial" font-size="8.8" text-anchor="end" xml:space="preserve" x="30.65" y="217.43">0.5</text><text fill="#4D4D4D" font-family="Arial" font-size="8.8" text-anchor="end" xml:space="preserve" x="30.65" y="201.57">0.6</text><text fill="#4D4D4D" font-family="Arial" font-size="8.8" text-anchor="end" xml:space="preserve" x="30.65" y="185.71">0.7</text><text fill="#4D4D4D" font-family="Arial" font-size="8.8" text-anchor="end" xml:space="preserve" x="30.65" y="169.84">0.8</text><text fill="#4D4D4D" font-family="Arial" font-size="8.8" text-anchor="end" xml:space="preserve" x="30.65" y="153.98">0.9</text><text fill="#4D4D4D" font-family="Arial" font-size="8.8" text-anchor="end" xml:space="preserve" x="30.65" y="138.12">1.0</text><path d="M32.85 214.28 35.59 214.28" stroke="#333333" stroke-width="1.07" stroke-linejoin="round" stroke-miterlimit="10" fill="none"/><path d="M32.85 198.42 35.59 198.42" stroke="#333333" stroke-width="1.07" stroke-linejoin="round" stroke-miterlimit="10" fill="none"/><path d="M32.85 182.56 35.59 182.56" stroke="#333333" stroke-width="1.07" stroke-linejoin="round" stroke-miterlimit="10" fill="none"/><path d="M32.85 166.69 35.59 166.69" stroke="#333333" stroke-width="1.07" stroke-linejoin="round" stroke-miterlimit="10" fill="none"/><path d="M32.85 150.83 35.59 150.83" stroke="#333333" stroke-width="1.07" stroke-linejoin="round" stroke-miterlimit="10" fill="none"/><path d="M32.85 134.97 35.59 134.97" stroke="#333333" stroke-width="1.07" stroke-linejoin="round" stroke-miterlimit="10" fill="none"/><text font-family="Arial" font-size="11" text-anchor="middle" xml:space="preserve" x="231.05" y="241">Serial position from begining of the trial</text><text font-family="Arial" font-size="11" text-anchor="middle" xml:space="preserve" transform="matrix(6.12323e-17 -1 1 6.12323e-17 13.36 119.85)">Accuracy</text><rect x="120.05" y="254.28" width="222.01" height="28.24" stroke-width="1.07" stroke-linecap="round" stroke-linejoin="round" stroke-miterlimit="10" fill="#FFFFFF"/><rect x="131.01" y="259.76" width="17.28" height="17.28" stroke-width="1.07" stroke-linecap="round" stroke-linejoin="round" stroke-miterlimit="10" fill="#FFFFFF"/><circle cx="139.65" cy="268.4" r="1.95" stroke-width="0.71" stroke-linecap="round" stroke-linejoin="round" stroke-miterlimit="10" fill="#F8766D"/><line x1="132.74" y1="268.4" x2="146.56" y2="268.4" stroke="#F8766D" stroke-width="1.07" stroke-linejoin="round" stroke-miterlimit="10" fill="none"/><rect x="243.88" y="259.76" width="17.28" height="17.28" stroke-width="1.07" stroke-linecap="round" stroke-linejoin="round" stroke-miterlimit="10" fill="#FFFFFF"/><path d="M252.52 265.36 255.15 269.92 249.88 269.92Z" stroke-width="0.71" stroke-linecap="round" stroke-linejoin="round" stroke-miterlimit="10" fill="#00BFC4"/><line x1="245.6" y1="268.4" x2="259.43" y2="268.4" stroke="#00BFC4" stroke-width="1.07" stroke-linejoin="round" stroke-miterlimit="10" fill="none"/><text font-family="Arial" font-size="8.8" xml:space="preserve" x="153.77" y="271.55">List 1 (standard trials)</text><text font-family="Arial" font-size="8.8" xml:space="preserve" x="266.64" y="271.55">List 2 (reset trials)</text></g></svg>